<svg width="600" height="600" viewBox="0 0 600 600" fill="none" xmlns="http://www.w3.org/2000/svg">
  <path d="M296.174 62.4637C298.1 59.1401 302.9 59.14 304.826 62.4637L573.649 526.274C575.581 529.607 573.176 533.781 569.323 533.781H31.6771C27.8244 533.781 25.4192 529.607 27.3512 526.274L296.174 62.4637Z" fill="#9F72FF" fill-opacity="0.5"/>
  <path d="M296.175 61.4571C298.102 58.1353 302.898 58.1353 304.825 61.4572L573.645 524.94C575.578 528.273 573.173 532.448 569.32 532.448H31.6801C27.8267 532.448 25.4216 528.273 27.355 524.94L296.175 61.4571Z" fill="#FF729D" fill-opacity="0.5"/>
  <path d="M296.174 84.4637C298.1 81.14 302.9 81.14 304.826 84.4637L554.649 515.493C556.581 518.826 554.176 523 550.323 523H50.6771C46.8244 523 44.4192 518.826 46.3512 515.493L296.174 84.4637Z" fill="black"/>
  <path d="M338.7 358.8C336.7 360.2 335.7 361.5 335.7 362.7C335.7 363.9 336.8 365.1 339 366.3C359.6 376.9 369.9 394.3 369.9 418.5C369.9 433.3 366.1 445.5 358.5 455.1C350.9 464.5 341.1 471.4 329.1 475.8C317.3 480 304.6 482.1 291 482.1C278.4 482.1 266.4 480.2 255 476.4C243.6 472.4 234 466.2 226.2 457.8C218.6 449.2 214.2 438.3 213 425.1V424.5C213 422.5 213.5 421 214.5 420C215.7 419 217.2 418.5 219 418.5H240.9C242.9 418.5 244.4 419 245.4 420C246.4 420.8 247.1 422.2 247.5 424.2C249.3 432 253.6 438.7 260.4 444.3C267.2 449.7 277.4 452.4 291 452.4C307.8 452.4 319.2 448.6 325.2 441C331.4 433.4 334.5 425 334.5 415.8C334.5 410.8 333 405.5 330 399.9C327.2 394.1 322.5 389.2 315.9 385.2C309.5 381 301.2 378.9 291 378.9C285.8 378.9 281.1 379.2 276.9 379.8H276C272 379.8 270 377.9 270 374.1V356.7C270 352.9 271.9 351 275.7 351L291 351.3C300.4 351.3 308.1 349.3 314.1 345.3C320.1 341.1 324.4 336.3 327 330.9C329.6 325.3 330.9 320.2 330.9 315.6C330.9 307.6 328.1 300.4 322.5 294C316.9 287.4 306.4 284.1 291 284.1C275.2 284.1 264.5 287.4 258.9 294C253.3 300.6 250.5 307.8 250.5 315.6C248.9 318.8 246.8 320.4 244.2 320.4H225.3C223.7 320.4 222.3 320.2 221.1 319.8C219.9 319.2 219.2 318.5 219 317.7C218.8 316.9 218.7 315.9 218.7 314.7V312.9C218.7 303.3 221.2 294.1 226.2 285.3C231.4 276.5 239.4 269.3 250.2 263.7C261 257.9 274.6 255 291 255C310.8 255 327.8 259.9 342 269.7C356.2 279.3 363.3 294.5 363.3 315.3C363.3 324.7 361 333.1 356.4 340.5C352 347.7 346.1 353.8 338.7 358.8Z" fill="#9F72FF" fill-opacity="0.5"/>
  <path d="M356.7 343.8C354.7 345.2 353.7 346.5 353.7 347.7C353.7 348.9 354.8 350.1 357 351.3C377.6 361.9 387.9 379.3 387.9 403.5C387.9 418.3 384.1 430.5 376.5 440.1C368.9 449.5 359.1 456.4 347.1 460.8C335.3 465 322.6 467.1 309 467.1C296.4 467.1 284.4 465.2 273 461.4C261.6 457.4 252 451.2 244.2 442.8C236.6 434.2 232.2 423.3 231 410.1V409.5C231 407.5 231.5 406 232.5 405C233.7 404 235.2 403.5 237 403.5H258.9C260.9 403.5 262.4 404 263.4 405C264.4 405.8 265.1 407.2 265.5 409.2C267.3 417 271.6 423.7 278.4 429.3C285.2 434.7 295.4 437.4 309 437.4C325.8 437.4 337.2 433.6 343.2 426C349.4 418.4 352.5 410 352.5 400.8C352.5 395.8 351 390.5 348 384.9C345.2 379.1 340.5 374.2 333.9 370.2C327.5 366 319.2 363.9 309 363.9C303.8 363.9 299.1 364.2 294.9 364.8H294C290 364.8 288 362.9 288 359.1V341.7C288 337.9 289.9 336 293.7 336L309 336.3C318.4 336.3 326.1 334.3 332.1 330.3C338.1 326.1 342.4 321.3 345 315.9C347.6 310.3 348.9 305.2 348.9 300.6C348.9 292.6 346.1 285.4 340.5 279C334.9 272.4 324.4 269.1 309 269.1C293.2 269.1 282.5 272.4 276.9 279C271.3 285.6 268.5 292.8 268.5 300.6C266.9 303.8 264.8 305.4 262.2 305.4H243.3C241.7 305.4 240.3 305.2 239.1 304.8C237.9 304.2 237.2 303.5 237 302.7C236.8 301.9 236.7 300.9 236.7 299.7V297.9C236.7 288.3 239.2 279.1 244.2 270.3C249.4 261.5 257.4 254.3 268.2 248.7C279 242.9 292.6 240 309 240C328.8 240 345.8 244.9 360 254.7C374.2 264.3 381.3 279.5 381.3 300.3C381.3 309.7 379 318.1 374.4 325.5C370 332.7 364.1 338.8 356.7 343.8Z" fill="#FF729D" fill-opacity="0.5"/>
  <path d="M347.7 350.8C345.7 352.2 344.7 353.5 344.7 354.7C344.7 355.9 345.8 357.1 348 358.3C368.6 368.9 378.9 386.3 378.9 410.5C378.9 425.3 375.1 437.5 367.5 447.1C359.9 456.5 350.1 463.4 338.1 467.8C326.3 472 313.6 474.1 300 474.1C287.4 474.1 275.4 472.2 264 468.4C252.6 464.4 243 458.2 235.2 449.8C227.6 441.2 223.2 430.3 222 417.1V416.5C222 414.5 222.5 413 223.5 412C224.7 411 226.2 410.5 228 410.5H249.9C251.9 410.5 253.4 411 254.4 412C255.4 412.8 256.1 414.2 256.5 416.2C258.3 424 262.6 430.7 269.4 436.3C276.2 441.7 286.4 444.4 300 444.4C316.8 444.4 328.2 440.6 334.2 433C340.4 425.4 343.5 417 343.5 407.8C343.5 402.8 342 397.5 339 391.9C336.2 386.1 331.5 381.2 324.9 377.2C318.5 373 310.2 370.9 300 370.9C294.8 370.9 290.1 371.2 285.9 371.8H285C281 371.8 279 369.9 279 366.1V348.7C279 344.9 280.9 343 284.7 343L300 343.3C309.4 343.3 317.1 341.3 323.1 337.3C329.1 333.1 333.4 328.3 336 322.9C338.6 317.3 339.9 312.2 339.9 307.6C339.9 299.6 337.1 292.4 331.5 286C325.9 279.4 315.4 276.1 300 276.1C284.2 276.1 273.5 279.4 267.9 286C262.3 292.6 259.5 299.8 259.5 307.6C257.9 310.8 255.8 312.4 253.2 312.4H234.3C232.7 312.4 231.3 312.2 230.1 311.8C228.9 311.2 228.2 310.5 228 309.7C227.8 308.9 227.7 307.9 227.7 306.7V304.9C227.7 295.3 230.2 286.1 235.2 277.3C240.4 268.5 248.4 261.3 259.2 255.7C270 249.9 283.6 247 300 247C319.8 247 336.8 251.9 351 261.7C365.2 271.3 372.3 286.5 372.3 307.3C372.3 316.7 370 325.1 365.4 332.5C361 339.7 355.1 345.8 347.7 350.8Z" fill="white"/>
</svg>
